<?xml version="1.0" encoding="UTF-8"?>
<svg xmlns="http://www.w3.org/2000/svg" viewBox="0 0 947 848.24">
  <defs>
    <style>
      .cls-1 {
        fill: #f6b632;
      }

      .cls-2 {
        fill: #cccccb;
      }

      .cls-3 {
        stroke-width: .3px;
      }

      .cls-3, .cls-4, .cls-5, .cls-6, .cls-7, .cls-8, .cls-9, .cls-10 {
        stroke-miterlimit: 10;
      }

      .cls-3, .cls-4, .cls-5, .cls-11, .cls-8, .cls-9, .cls-10 {
        fill: #282746;
      }

      .cls-3, .cls-4, .cls-5, .cls-8, .cls-9, .cls-10 {
        stroke: #282746;
      }

      .cls-4 {
        stroke-width: 2px;
      }

      .cls-12 {
        fill: #e65b29;
      }

      .cls-13 {
        fill: #fbac43;
      }

      .cls-14 {
        fill: #c66b3f;
      }

      .cls-5 {
        stroke-width: .25px;
      }

      .cls-15 {
        fill: #cc5741;
      }

      .cls-16 {
        fill: #f7a538;
      }

      .cls-17, .cls-6 {
        fill: none;
      }

      .cls-18 {
        fill: #4f9d99;
      }

      .cls-19 {
        fill: #135062;
      }

      .cls-20 {
        fill: #013333;
        font-family: SegoePrint-Bold, 'Segoe Print';
        font-size: 56.4px;
      }

      .cls-20, .cls-21 {
        font-weight: 700;
      }

      .cls-22 {
        letter-spacing: -.04em;
      }

      .cls-23 {
        letter-spacing: -.02em;
      }

      .cls-24 {
        fill: #4aa09c;
      }

      .cls-25 {
        letter-spacing: -.03em;
      }

      .cls-6 {
        stroke: #fff;
        stroke-width: 3px;
      }

      .cls-26 {
        fill: #d9892c;
      }

      .cls-27 {
        fill: #165062;
      }

      .cls-28 {
        letter-spacing: -.03em;
      }

      .cls-29 {
        fill: #f29b3a;
      }

      .cls-21 {
        fill: #0f1031;
        font-family: CenturyGothic-Bold, 'Century Gothic';
        font-size: 151.93px;
      }

      .cls-30 {
        fill: #cb6828;
      }

      .cls-31 {
        fill: #f05327;
      }

      .cls-7 {
        fill: #f9fafd;
        stroke: #f9fafd;
      }

      .cls-32 {
        fill: #f9a236;
      }

      .cls-33 {
        fill: #e08129;
      }

      .cls-8 {
        stroke-width: 5px;
      }

      .cls-34 {
        fill: #faa720;
      }

      .cls-35 {
        fill: #d25644;
      }

      .cls-36 {
        fill: #f8991d;
      }

      .cls-9 {
        stroke-width: 3.5px;
      }

      .cls-10 {
        stroke-width: .5px;
      }

      .cls-37 {
        fill: #e68925;
      }
    </style>
  </defs>
  <g id="Layer_1" data-name="Layer 1">
    <text class="cls-21" transform="translate(0 647.33) scale(.59 1)"><tspan x="0" y="0">OUR FAITHS FORWARD</tspan></text>
    <text class="cls-20" transform="translate(100 709.45) scale(.84 1)"><tspan class="cls-23" x="0" y="0">United for </tspan><tspan class="cls-22" x="300.71" y="0">C</tspan><tspan class="cls-23" x="337.53" y="0">ompassion &amp; </tspan><tspan class="cls-28" x="705.59" y="0">J</tspan><tspan class="cls-25" x="737.12" y="0">ustice</tspan></text>
    <text/>
  </g>
  <g id="Layer_3" data-name="Layer 3">
    <g>
      <path class="cls-11" d="M730.81,285.48c.71-7.79,1.09-15.68,1.09-23.66C731.89,118.67,615.84,2.63,472.69,2.63S213.49,118.67,213.49,261.83c0,7.98.38,15.86,1.09,23.66h516.23Z"/>
      <path class="cls-7" d="M566.71,214.98c2.89-8.57,4.45-17.68,4.45-27.11,0-51.03-45.52-92.4-101.66-92.4s-101.66,41.37-101.66,92.4c0,7.78,1.06,15.34,3.06,22.56l98.61-50.64,97.21,55.19Z"/>
      <path class="cls-2" d="M470.34,153.34l97.48,61.68c3.25-8.9,5.01-18.39,5.01-28.25,0-50.53-46.11-91.5-103-91.5s-103,40.97-103,91.5c0,9.42,1.6,18.5,4.58,27.05l3.01-1.84,95.92-58.64Z"/>
      <polygon class="cls-24" points="580.86 223.27 561.15 235.47 553.38 240.28 497.34 274.96 487.84 280.84 480.38 285.46 461.32 285.46 452.12 279.87 445.1 275.61 389.12 241.62 385.66 239.52 357.43 222.37 371.41 213.82 374.42 211.98 470.34 153.34 567.82 215.02 570.2 216.53 580.86 223.27"/>
      <path class="cls-24" d="M235.5,156.78c-15.57,33.31-21.69,70.11-21.69,109.3,0,2.84.06,5.66.15,8.48l143.47-52.19-121.93-65.59Z"/>
      <path class="cls-37" d="M388.79,117.06l-70.94-62.88c-6.71,5.02-13.17,10.37-19.36,16.01l79.63,58.93c3.23-4.26,6.79-8.29,10.67-12.06Z"/>
      <path class="cls-37" d="M430.54,91.26l-33.08-77.44c-7.35,2.24-14.56,4.79-21.62,7.65l41.17,75.58c4.34-2.19,8.86-4.12,13.52-5.79Z"/>
      <path class="cls-37" d="M472.69,84.01c2.37,0,4.71.07,7.04.2l4.25-81.35c-3.64-.15-7.3-.24-10.97-.24-4.27,0-8.52.11-12.75.31l4.89,81.31c2.49-.15,5-.24,7.54-.24Z"/>
      <path class="cls-37" d="M528.7,97.21l41.3-75.82c-7.06-2.85-14.28-5.4-21.63-7.63l-33.16,77.62c4.65,1.68,9.16,3.64,13.49,5.83Z"/>
      <path class="cls-37" d="M566.54,128.16l79.79-59.04c-6.27-5.64-12.81-10.98-19.61-16l-71.09,63.01c3.96,3.75,7.6,7.78,10.91,12.03Z"/>
      <path class="cls-15" d="M585.56,169.62l113.01-35.56c-4.86-8.57-10.21-16.83-15.98-24.76l-101.02,45.92c1.7,4.66,3.04,9.47,3.99,14.4Z"/>
      <path class="cls-15" d="M363.95,154.87l-100.45-45.66c-5.79,7.93-11.14,16.2-16.01,24.78l112.39,35.37c.97-4.96,2.34-9.8,4.07-14.49Z"/>
      <path class="cls-24" d="M731.97,274.31c.15-3.56.24-7.14.24-10.73,0-40.39-8.89-78.88-25.38-112.96l-125.97,72.62,151.11,51.08Z"/>
      <path class="cls-11" d="M469.33,285.48l235.02,92.71c1.17-2.32,2.3-4.67,3.4-7.04-19.49-6.92-68.06-24.16-86.85-30.89-37.93-13.6-151.57-54.78-151.57-54.78Z"/>
      <path class="cls-11" d="M317.76,340.26c-17.14,6.15-59.06,21.03-81.09,28.85,1.05,2.31,2.14,4.59,3.26,6.86l229.4-90.49s-113.64,41.18-151.57,54.78Z"/>
      <path class="cls-11" d="M284.82,440.4c2.24,2.36,4.54,4.66,6.87,6.94l177.64-161.85-184.51,154.91Z"/>
      <path class="cls-11" d="M650.42,450.48c2.42-2.28,4.79-4.61,7.12-6.98l-188.21-158.02,181.09,165Z"/>
      <path class="cls-11" d="M470.96,363.37l-1.63-77.88-4.92,235.4c2.75.09,5.51.15,8.28.15.52,0,1.04-.02,1.57-.02l-3.3-157.64"/>
      <path class="cls-19" d="M469.33,285.48h-254.75c2.68,29.59,10.32,57.75,22.1,83.63,22.02-7.82,63.94-22.7,81.09-28.85,37.93-13.6,151.57-54.78,151.57-54.78Z"/>
      <path class="cls-19" d="M620.9,340.26c18.79,6.74,67.36,23.98,86.85,30.89,12.32-26.44,20.3-55.3,23.05-85.67h-261.48s113.64,41.18,151.57,54.78Z"/>
      <g>
        <path class="cls-14" d="M239.93,375.98c11.67,23.75,26.85,45.45,44.89,64.42l141.41-118.73h-48.63l-137.68,54.31Z"/>
        <polygon class="cls-26" points="377.61 321.67 426.24 321.67 469.33 285.48 377.61 321.67"/>
      </g>
      <polygon class="cls-11" points="467.83 285.48 467.65 285.48 467.51 285.6 467.83 285.48"/>
      <polygon class="cls-24" points="333.17 304.09 273.17 285.48 469.33 285.48 469.33 285.48 333.17 304.09"/>
      <polygon class="cls-24" points="605.49 304.09 665.49 285.48 469.33 285.48 469.33 285.48 605.49 304.09"/>
      <line class="cls-19" x1="412.9" y1="410.97" x2="525.46" y2="410.52"/>
      <path class="cls-18" d="M372.52,500.95c28.41,11.92,59.4,18.91,91.89,19.93l3.24-154.75h-34.55l-60.58,134.82Z"/>
      <polygon class="cls-27" points="505.55 366.13 500.79 355.53 470.82 355.53 471.04 366.13 505.55 366.13"/>
      <polygon class="cls-27" points="467.87 355.53 437.86 355.53 433.09 366.13 467.64 366.13 467.7 363.28 467.87 355.53"/>
      <polygon class="cls-18" points="470.82 355.53 500.79 355.53 487.63 326.24 470.2 326.24 470.82 355.53"/>
      <polygon class="cls-18" points="469.35 285.56 470.16 324.08 486.66 324.08 469.35 285.56"/>
      <polygon class="cls-18" points="437.86 355.53 467.87 355.53 468.48 326.24 451.02 326.24 437.86 355.53"/>
      <polygon class="cls-18" points="469.33 285.48 451.99 324.08 468.52 324.08 469.33 285.48"/>
      <polygon class="cls-27" points="487.63 326.24 486.66 324.08 470.16 324.08 470.2 326.24 487.63 326.24"/>
      <polygon class="cls-27" points="451.99 324.08 451.02 326.24 468.48 326.24 468.52 324.08 451.99 324.08"/>
      <polygon class="cls-18" points="505.55 366.13 471.04 366.13 473.15 467.28 551 467.28 505.55 366.13"/>
      <path class="cls-27" d="M566.79,502.43l-15.79-35.15h-77.85l1.09,52.08c32.52-.25,63.93-5.75,92.55-16.92Z"/>
      <path class="cls-30" d="M239.93,375.97c11.67,23.75,26.85,45.46,44.89,64.43l125.24-105.16h-66.87l-103.25,40.73Z"/>
      <polygon class="cls-1" points="469.33 285.48 377.61 321.66 343.19 335.24 410.06 335.24 426.23 321.66 469.33 285.48"/>
      <path class="cls-30" d="M704.35,378.19l-40.14-15.83h-103.32l96.65,81.14c18.79-19.11,34.63-41.12,46.81-65.31Z"/>
      <polygon class="cls-1" points="607.72 340.08 469.33 285.48 534.35 340.08 560.89 362.36 664.21 362.36 607.72 340.08"/>
      <path class="cls-11" d="M364.65,497.49c2.6,1.19,5.22,2.35,7.87,3.46l96.82-215.47-104.69,212Z"/>
      <path class="cls-11" d="M567.18,503.26c2.71-1.06,5.38-2.17,8.04-3.32l-105.9-214.45,97.85,217.77Z"/>
      <line class="cls-8" x1="383.65" y1="464.71" x2="555.58" y2="464.71"/>
      <line class="cls-8" x1="418.99" y1="391.74" x2="519.83" y2="391.74"/>
      <line class="cls-9" x1="443.47" y1="339.78" x2="494.64" y2="339.78"/>
      <line class="cls-4" x1="456.45" y1="312.78" x2="482.11" y2="312.78"/>
      <line class="cls-4" x1="400.35" y1="430.9" x2="538.31" y2="430.9"/>
      <line class="cls-5" x1="465.25" y1="293.95" x2="473.5" y2="293.95"/>
      <line class="cls-10" x1="427.05" y1="373.87" x2="511.76" y2="373.87"/>
      <line class="cls-3" x1="436.67" y1="355.4" x2="502.61" y2="355.4"/>
      <line class="cls-3" x1="440.41" y1="347.07" x2="498.49" y2="347.07"/>
      <line class="cls-3" x1="446.39" y1="334.32" x2="492.45" y2="334.32"/>
      <line class="cls-5" x1="449.33" y1="328.32" x2="489.73" y2="328.32"/>
      <line class="cls-3" x1="452.42" y1="321.67" x2="486.55" y2="321.67"/>
      <line class="cls-5" x1="464.1" y1="296.27" x2="474.6" y2="296.27"/>
      <line class="cls-5" x1="461.97" y1="301.47" x2="476.72" y2="301.47"/>
      <line class="cls-5" x1="461.22" y1="303.1" x2="477.47" y2="303.1"/>
      <line class="cls-5" x1="453.98" y1="318.46" x2="485.23" y2="318.46"/>
      <line class="cls-5" x1="453.37" y1="319.5" x2="485.37" y2="319.5"/>
      <line class="cls-5" x1="459.59" y1="306.17" x2="478.84" y2="306.17"/>
      <line class="cls-3" x1="455.2" y1="315.78" x2="483.49" y2="315.78"/>
      <polygon class="cls-17" points="515.06 378.08 469.33 285.48 423.61 378.08 515.06 378.08"/>
      <path class="cls-12" d="M291.69,447.34c21.14,20.63,45.78,37.67,72.95,50.15l38.7-78.37h-80.68l-30.97,28.21Z"/>
      <path class="cls-31" d="M575.23,499.94c27.95-12.05,53.36-28.88,75.19-49.46l-34.42-31.36h-80.68l39.91,80.82Z"/>
      <polygon class="cls-17" points="495.15 337.76 469.33 285.48 443.52 337.76 495.15 337.76"/>
      <polygon class="cls-33" points="322.66 419.12 403.34 419.12 422.9 379.52 366.12 379.52 322.66 419.12"/>
      <polygon class="cls-36" points="535.32 419.12 616.01 419.12 572.54 379.52 515.77 379.52 535.32 419.12"/>
      <polygon class="cls-29" points="423.61 378.08 443.52 337.76 411.95 337.76 367.7 378.08 423.61 378.08"/>
      <polygon class="cls-32" points="515.06 378.08 570.96 378.08 526.71 337.76 495.15 337.76 515.06 378.08"/>
      <polygon class="cls-36" points="367.7 378.08 366.12 379.52 422.9 379.52 423.61 378.08 367.7 378.08"/>
      <polygon class="cls-36" points="515.06 378.08 515.77 379.52 572.54 379.52 570.96 378.08 515.06 378.08"/>
      <polygon class="cls-17" points="479.8 306.68 469.33 285.48 458.86 306.68 479.8 306.68"/>
      <polygon class="cls-34" points="469.33 285.48 446.07 306.68 458.86 306.68 469.33 285.48"/>
      <polygon class="cls-35" points="411.95 337.76 443.52 337.76 443.58 337.64 412.09 337.64 411.95 337.76"/>
      <polygon class="cls-35" points="495.15 337.76 526.71 337.76 526.58 337.64 495.09 337.64 495.15 337.76"/>
      <polygon class="cls-13" points="492.6 306.68 469.33 285.48 479.8 306.68 492.6 306.68"/>
      <polygon class="cls-1" points="446.07 306.68 412.09 337.64 443.58 337.64 458.86 306.68 446.07 306.68"/>
      <polygon class="cls-16" points="479.8 306.68 495.09 337.64 526.58 337.64 492.6 306.68 479.8 306.68"/>
      <circle class="cls-6" cx="473.63" cy="261.38" r="259.88"/>
    </g>
  </g>
</svg>