<?xml version="1.0" encoding="UTF-8"?>
<svg xmlns="http://www.w3.org/2000/svg" viewBox="0 0 900.36 737.38">
  <defs>
    <style>
      .cls-1 {
        fill: #f6b632;
      }

      .cls-2 {
        fill: #cccccb;
      }

      .cls-3 {
        stroke-width: .3px;
      }

      .cls-3, .cls-4, .cls-5, .cls-6, .cls-7, .cls-8, .cls-9, .cls-10 {
        stroke-miterlimit: 10;
      }

      .cls-3, .cls-4, .cls-5, .cls-11, .cls-8, .cls-9, .cls-10 {
        fill: #282746;
      }

      .cls-3, .cls-4, .cls-5, .cls-8, .cls-9, .cls-10 {
        stroke: #282746;
      }

      .cls-4 {
        stroke-width: 2px;
      }

      .cls-12 {
        fill: #e65b29;
      }

      .cls-13 {
        fill: #fbac43;
      }

      .cls-14 {
        fill: #c66b3f;
      }

      .cls-5 {
        stroke-width: .25px;
      }

      .cls-15 {
        fill: #cc5741;
      }

      .cls-16 {
        fill: #f7a538;
      }

      .cls-17, .cls-6 {
        fill: none;
      }

      .cls-18 {
        fill: #4f9d99;
      }

      .cls-19 {
        fill: #135062;
      }

      .cls-20 {
        fill: #013333;
        font-family: SegoePrint-Bold, 'Segoe Print';
        font-size: 56.4px;
      }

      .cls-20, .cls-21 {
        font-weight: 700;
      }

      .cls-22 {
        letter-spacing: -.04em;
      }

      .cls-23 {
        letter-spacing: -.02em;
      }

      .cls-24 {
        fill: #4aa09c;
      }

      .cls-25 {
        letter-spacing: -.03em;
      }

      .cls-6 {
        stroke: #fff;
        stroke-width: 3px;
      }

      .cls-26 {
        fill: #d9892c;
      }

      .cls-27 {
        fill: #165062;
      }

      .cls-28 {
        letter-spacing: -.03em;
      }

      .cls-29 {
        fill: #f29b3a;
      }

      .cls-21 {
        fill: #0f1031;
        font-family: CenturyGothic-Bold, 'Century Gothic';
        font-size: 151.93px;
      }

      .cls-30 {
        fill: #cb6828;
      }

      .cls-31 {
        fill: #f05327;
      }

      .cls-7 {
        fill: #f9fafd;
        stroke: #f9fafd;
      }

      .cls-32 {
        fill: #f9a236;
      }

      .cls-33 {
        fill: #e08129;
      }

      .cls-8 {
        stroke-width: 5px;
      }

      .cls-34 {
        fill: #faa720;
      }

      .cls-35 {
        fill: #d25644;
      }

      .cls-36 {
        fill: #f8991d;
      }

      .cls-9 {
        stroke-width: 3.5px;
      }

      .cls-10 {
        stroke-width: .5px;
      }

      .cls-37 {
        fill: #e68925;
      }
    </style>
  </defs>
  <g id="Layer_1" data-name="Layer 1">
    <text class="cls-21" transform="translate(0 647.33) scale(.59 1)"><tspan x="0" y="0">OUR FAITH FORWARD</tspan></text>
    <text class="cls-20" transform="translate(53.68 709.45) scale(.84 1)"><tspan class="cls-23" x="0" y="0">United for </tspan><tspan class="cls-22" x="300.71" y="0">C</tspan><tspan class="cls-23" x="337.53" y="0">ompassion &amp; </tspan><tspan class="cls-28" x="705.59" y="0">J</tspan><tspan class="cls-25" x="737.12" y="0">ustice</tspan></text>
  </g>
  <g id="Layer_3" data-name="Layer 3">
    <g>
      <path class="cls-11" d="M673.13,285.48c.71-7.79,1.09-15.68,1.09-23.66C674.22,118.67,558.17,2.63,415.02,2.63S155.82,118.67,155.82,261.83c0,7.98.38,15.86,1.09,23.66h516.23Z"/>
      <path class="cls-7" d="M509.04,214.98c2.89-8.57,4.45-17.68,4.45-27.11,0-51.03-45.52-92.4-101.66-92.4s-101.66,41.37-101.66,92.4c0,7.78,1.06,15.34,3.06,22.56l98.61-50.64,97.21,55.19Z"/>
      <path class="cls-2" d="M412.67,153.34l97.48,61.68c3.25-8.9,5.01-18.39,5.01-28.25,0-50.53-46.11-91.5-103-91.5s-103,40.97-103,91.5c0,9.42,1.6,18.5,4.58,27.05l3.01-1.84,95.92-58.64Z"/>
      <polygon class="cls-24" points="523.19 223.27 503.48 235.47 495.71 240.28 439.67 274.96 430.17 280.84 422.71 285.46 403.65 285.46 394.45 279.87 387.43 275.61 331.45 241.62 327.99 239.52 299.76 222.37 313.74 213.82 316.75 211.98 412.67 153.34 510.15 215.02 512.53 216.53 523.19 223.27"/>
      <path class="cls-24" d="M177.83,156.78c-15.57,33.31-21.69,70.11-21.69,109.3,0,2.84.06,5.66.15,8.48l143.47-52.19-121.93-65.59Z"/>
      <path class="cls-37" d="M331.12,117.06l-70.94-62.88c-6.71,5.02-13.17,10.37-19.36,16.01l79.63,58.93c3.23-4.26,6.79-8.29,10.67-12.06Z"/>
      <path class="cls-37" d="M372.87,91.26l-33.08-77.44c-7.35,2.24-14.56,4.79-21.62,7.65l41.17,75.58c4.34-2.19,8.86-4.12,13.52-5.79Z"/>
      <path class="cls-37" d="M415.02,84.01c2.37,0,4.71.07,7.04.2l4.25-81.35c-3.64-.15-7.3-.24-10.97-.24-4.27,0-8.52.11-12.75.31l4.89,81.31c2.49-.15,5-.24,7.54-.24Z"/>
      <path class="cls-37" d="M471.03,97.21l41.3-75.82c-7.06-2.85-14.28-5.4-21.63-7.63l-33.16,77.62c4.65,1.68,9.16,3.64,13.49,5.83Z"/>
      <path class="cls-37" d="M508.87,128.16l79.79-59.04c-6.27-5.64-12.81-10.98-19.61-16l-71.09,63.01c3.96,3.75,7.6,7.78,10.91,12.03Z"/>
      <path class="cls-15" d="M527.88,169.62l113.01-35.56c-4.86-8.57-10.21-16.83-15.98-24.76l-101.02,45.92c1.7,4.66,3.04,9.47,3.99,14.4Z"/>
      <path class="cls-15" d="M306.27,154.87l-100.45-45.66c-5.79,7.93-11.14,16.2-16.01,24.78l112.39,35.37c.97-4.96,2.34-9.8,4.07-14.49Z"/>
      <path class="cls-24" d="M674.3,274.31c.15-3.56.24-7.14.24-10.73,0-40.39-8.89-78.88-25.38-112.96l-125.97,72.62,151.11,51.08Z"/>
      <path class="cls-11" d="M411.66,285.48l235.02,92.71c1.17-2.32,2.3-4.67,3.4-7.04-19.49-6.92-68.06-24.16-86.85-30.89-37.93-13.6-151.57-54.78-151.57-54.78Z"/>
      <path class="cls-11" d="M260.09,340.26c-17.14,6.15-59.06,21.03-81.09,28.85,1.05,2.31,2.14,4.59,3.26,6.86l229.4-90.49s-113.64,41.18-151.57,54.78Z"/>
      <path class="cls-11" d="M227.15,440.4c2.24,2.36,4.54,4.66,6.87,6.94l177.64-161.85-184.51,154.91Z"/>
      <path class="cls-11" d="M592.75,450.48c2.42-2.28,4.79-4.61,7.12-6.98l-188.21-158.02,181.09,165Z"/>
      <path class="cls-11" d="M413.29,363.37l-1.63-77.88-4.92,235.4c2.75.09,5.51.15,8.28.15.52,0,1.04-.02,1.57-.02l-3.3-157.64"/>
      <path class="cls-19" d="M411.66,285.48h-254.75c2.68,29.59,10.32,57.75,22.1,83.63,22.02-7.82,63.94-22.7,81.09-28.85,37.93-13.6,151.57-54.78,151.57-54.78Z"/>
      <path class="cls-19" d="M563.23,340.26c18.79,6.74,67.36,23.98,86.85,30.89,12.32-26.44,20.3-55.3,23.05-85.67h-261.48s113.64,41.18,151.57,54.78Z"/>
      <g>
        <path class="cls-14" d="M182.26,375.98c11.67,23.75,26.85,45.45,44.89,64.42l141.41-118.73h-48.63l-137.68,54.31Z"/>
        <polygon class="cls-26" points="319.94 321.67 368.56 321.67 411.66 285.48 319.94 321.67"/>
      </g>
      <polygon class="cls-11" points="410.16 285.48 409.98 285.48 409.84 285.6 410.16 285.48"/>
      <polygon class="cls-24" points="275.5 304.09 215.5 285.48 411.66 285.48 411.66 285.48 275.5 304.09"/>
      <polygon class="cls-24" points="547.82 304.09 607.82 285.48 411.66 285.48 411.66 285.48 547.82 304.09"/>
      <line class="cls-19" x1="355.23" y1="410.97" x2="467.79" y2="410.52"/>
      <path class="cls-18" d="M314.84,500.95c28.41,11.92,59.4,18.91,91.89,19.93l3.24-154.75h-34.55l-60.58,134.82Z"/>
      <polygon class="cls-27" points="447.88 366.13 443.12 355.53 413.14 355.53 413.36 366.13 447.88 366.13"/>
      <polygon class="cls-27" points="410.19 355.53 380.18 355.53 375.42 366.13 409.97 366.13 410.03 363.28 410.19 355.53"/>
      <polygon class="cls-18" points="413.14 355.53 443.12 355.53 429.96 326.24 412.53 326.24 413.14 355.53"/>
      <polygon class="cls-18" points="411.68 285.56 412.48 324.08 428.99 324.08 411.68 285.56"/>
      <polygon class="cls-18" points="380.18 355.53 410.19 355.53 410.81 326.24 393.35 326.24 380.18 355.53"/>
      <polygon class="cls-18" points="411.66 285.48 394.32 324.08 410.85 324.08 411.66 285.48"/>
      <polygon class="cls-27" points="429.96 326.24 428.99 324.08 412.48 324.08 412.53 326.24 429.96 326.24"/>
      <polygon class="cls-27" points="394.32 324.08 393.35 326.24 410.81 326.24 410.85 324.08 394.32 324.08"/>
      <polygon class="cls-18" points="447.88 366.13 413.36 366.13 415.48 467.28 493.33 467.28 447.88 366.13"/>
      <path class="cls-27" d="M509.12,502.43l-15.79-35.15h-77.85l1.09,52.08c32.52-.25,63.93-5.75,92.55-16.92Z"/>
      <path class="cls-30" d="M182.26,375.97c11.67,23.75,26.85,45.46,44.89,64.43l125.24-105.16h-66.87l-103.25,40.73Z"/>
      <polygon class="cls-1" points="411.66 285.48 319.94 321.66 285.51 335.24 352.39 335.24 368.56 321.66 411.66 285.48"/>
      <path class="cls-30" d="M646.68,378.19l-40.14-15.83h-103.32l96.65,81.14c18.79-19.11,34.63-41.12,46.81-65.31Z"/>
      <polygon class="cls-1" points="550.05 340.08 411.66 285.48 476.68 340.08 503.22 362.36 606.54 362.36 550.05 340.08"/>
      <path class="cls-11" d="M306.97,497.49c2.6,1.19,5.22,2.35,7.87,3.46l96.82-215.47-104.69,212Z"/>
      <path class="cls-11" d="M509.51,503.26c2.71-1.06,5.38-2.17,8.04-3.32l-105.9-214.45,97.85,217.77Z"/>
      <line class="cls-8" x1="325.98" y1="464.71" x2="497.91" y2="464.71"/>
      <line class="cls-8" x1="361.32" y1="391.74" x2="462.15" y2="391.74"/>
      <line class="cls-9" x1="385.8" y1="339.78" x2="436.97" y2="339.78"/>
      <line class="cls-4" x1="398.78" y1="312.78" x2="424.44" y2="312.78"/>
      <line class="cls-4" x1="342.68" y1="430.9" x2="480.64" y2="430.9"/>
      <line class="cls-5" x1="407.58" y1="293.95" x2="415.83" y2="293.95"/>
      <line class="cls-10" x1="369.38" y1="373.87" x2="454.09" y2="373.87"/>
      <line class="cls-3" x1="378.99" y1="355.4" x2="444.93" y2="355.4"/>
      <line class="cls-3" x1="382.73" y1="347.07" x2="440.82" y2="347.07"/>
      <line class="cls-3" x1="388.71" y1="334.32" x2="434.78" y2="334.32"/>
      <line class="cls-5" x1="391.66" y1="328.32" x2="432.06" y2="328.32"/>
      <line class="cls-3" x1="394.75" y1="321.67" x2="428.88" y2="321.67"/>
      <line class="cls-5" x1="406.43" y1="296.27" x2="416.93" y2="296.27"/>
      <line class="cls-5" x1="404.3" y1="301.47" x2="419.05" y2="301.47"/>
      <line class="cls-5" x1="403.55" y1="303.1" x2="419.8" y2="303.1"/>
      <line class="cls-5" x1="396.31" y1="318.46" x2="427.56" y2="318.46"/>
      <line class="cls-5" x1="395.7" y1="319.5" x2="427.7" y2="319.5"/>
      <line class="cls-5" x1="401.92" y1="306.17" x2="421.17" y2="306.17"/>
      <line class="cls-3" x1="397.53" y1="315.78" x2="425.82" y2="315.78"/>
      <polygon class="cls-17" points="457.38 378.08 411.66 285.48 365.94 378.08 457.38 378.08"/>
      <path class="cls-12" d="M234.02,447.34c21.14,20.63,45.78,37.67,72.95,50.15l38.7-78.37h-80.68l-30.97,28.21Z"/>
      <path class="cls-31" d="M517.56,499.94c27.95-12.05,53.36-28.88,75.19-49.46l-34.42-31.36h-80.68l39.91,80.82Z"/>
      <polygon class="cls-17" points="437.47 337.76 411.66 285.48 385.84 337.76 437.47 337.76"/>
      <polygon class="cls-33" points="264.99 419.12 345.67 419.12 365.22 379.52 308.45 379.52 264.99 419.12"/>
      <polygon class="cls-36" points="477.65 419.12 558.33 419.12 514.87 379.52 458.09 379.52 477.65 419.12"/>
      <polygon class="cls-29" points="365.94 378.08 385.84 337.76 354.28 337.76 310.03 378.08 365.94 378.08"/>
      <polygon class="cls-32" points="457.38 378.08 513.29 378.08 469.04 337.76 437.47 337.76 457.38 378.08"/>
      <polygon class="cls-36" points="310.03 378.08 308.45 379.52 365.22 379.52 365.94 378.08 310.03 378.08"/>
      <polygon class="cls-36" points="457.38 378.08 458.09 379.52 514.87 379.52 513.29 378.08 457.38 378.08"/>
      <polygon class="cls-17" points="422.13 306.68 411.66 285.48 401.19 306.68 422.13 306.68"/>
      <polygon class="cls-34" points="411.66 285.48 388.39 306.68 401.19 306.68 411.66 285.48"/>
      <polygon class="cls-35" points="354.28 337.76 385.84 337.76 385.9 337.64 354.41 337.64 354.28 337.76"/>
      <polygon class="cls-35" points="437.47 337.76 469.04 337.76 468.9 337.64 437.41 337.64 437.47 337.76"/>
      <polygon class="cls-13" points="434.92 306.68 411.66 285.48 422.13 306.68 434.92 306.68"/>
      <polygon class="cls-1" points="388.39 306.68 354.41 337.64 385.9 337.64 401.19 306.68 388.39 306.68"/>
      <polygon class="cls-16" points="422.13 306.68 437.41 337.64 468.9 337.64 434.92 306.68 422.13 306.68"/>
      <circle class="cls-6" cx="415.96" cy="261.38" r="259.88"/>
    </g>
  </g>
</svg>